<svg id="Layer_1" data-name="Layer 1" xmlns="http://www.w3.org/2000/svg" viewBox="0 0 77.69 84.93"><title>icone bénévole</title><path d="M60.34,57.12a2,2,0,0,1-1.41-3.41L81.38,31.25A2.37,2.37,0,0,0,82,28.76a2.64,2.64,0,0,0-1.61-1.61,2.5,2.5,0,0,0-2.08.21,2,2,0,0,1-2-3.45,6.5,6.5,0,0,1,5.41-.55,6.63,6.63,0,0,1,4,3.92,6.33,6.33,0,0,1-1.51,6.8L61.76,56.54A2,2,0,0,1,60.34,57.12Z" transform="translate(-11.16 -7.54)"/><path d="M67.33,61.45A2,2,0,0,1,65.91,58L84,40a1.88,1.88,0,0,0,.5-2A2.1,2.1,0,0,0,83,36.63a2,2,0,0,0-1.82.54l-3,3a2,2,0,1,1-2.83-2.83l3-3a6,6,0,0,1,5.46-1.63,6.07,6.07,0,0,1,4.45,3.81A5.85,5.85,0,0,1,86.8,42.8L68.74,60.87A2,2,0,0,1,67.33,61.45Z" transform="translate(-11.16 -7.54)"/><path d="M66,62.78a2,2,0,0,1-1.42-3.41L65.91,58a2,2,0,1,1,2.83,2.83h0l-1.33,1.33A2,2,0,0,1,66,62.78Z" transform="translate(-11.16 -7.54)"/><path d="M44.8,92.46A2,2,0,0,1,43.39,89l3.52-3.52a1.9,1.9,0,0,1,.23-.2l13.29-9.72,8.45-7.81L84.11,52.57a2.5,2.5,0,0,0,.68-2.27,2.6,2.6,0,0,0-1.68-1.91,2.4,2.4,0,0,0-2.52.63l-3.27,3.27a2,2,0,1,1-2.83-2.83l3.27-3.27a6.35,6.35,0,0,1,6.85-1.51,6.59,6.59,0,0,1,4.1,4.82,6.49,6.49,0,0,1-1.77,5.9L71.66,70.68l-8.59,7.95-.18.15-13.26,9.7-3.41,3.41A2,2,0,0,1,44.8,92.46Z" transform="translate(-11.16 -7.54)"/><path d="M27.82,72.68A2,2,0,0,1,26,71.47c-2.33-5.43,2.28-17.61,3.23-20l0-.12a58.53,58.53,0,0,0,2.82-7.06c1.53-4.69,4.22-13.08,5.09-16.61a6,6,0,0,1,11.73,2.19C48.43,33.46,46,53.54,46,53.74a2,2,0,1,1-4-.48c0-.2,2.45-20.31,2.93-23.93a2.06,2.06,0,0,0-1.56-2.4A2.09,2.09,0,0,0,41,28.62c-.86,3.47-3.29,11.1-5.17,16.89a62.36,62.36,0,0,1-3,7.48c-2,5-4.55,13.85-3.25,16.88a2,2,0,0,1-1.84,2.79Z" transform="translate(-11.16 -7.54)"/><path d="M13.16,88a2,2,0,0,1-1.45-3.38l14.84-15.5a2,2,0,0,1,2.89,2.76L14.61,87.42A2,2,0,0,1,13.16,88Z" transform="translate(-11.16 -7.54)"/><path d="M53.49,54a2,2,0,0,1-1.39-.56L49.52,51a2,2,0,0,1,2.77-2.88l1.17,1.12,18-18a11.71,11.71,0,0,0,0-16.54c-4.42-4.42-11.84-4.2-16.54.5a2,2,0,0,1-2.83,0h0a12.41,12.41,0,0,0-8.34-3.68,10.88,10.88,0,0,0-8.2,3.17,11.69,11.69,0,0,0,0,16.53h0l1.56,1.56a2,2,0,1,1-2.83,2.83l-1.56-1.56a15.69,15.69,0,0,1,0-22.19h0A14.89,14.89,0,0,1,43.88,7.55a16.32,16.32,0,0,1,9.61,3.58c6.27-5,15.23-4.78,20.78.76a15.71,15.71,0,0,1,0,22.19L54.91,53.45A2,2,0,0,1,53.49,54Z" transform="translate(-11.16 -7.54)"/></svg>