<?xml version="1.0" encoding="utf-8"?>
<!-- Generator: Adobe Illustrator 21.0.2, SVG Export Plug-In . SVG Version: 6.00 Build 0)  -->
<svg version="1.1" id="Layer_1" xmlns="http://www.w3.org/2000/svg" xmlns:xlink="http://www.w3.org/1999/xlink" x="0px" y="0px"
	 viewBox="0 0 1014 656" style="enable-background:new 0 0 1014 656;" xml:space="preserve">
<style type="text/css">
	.st0{fill:#FEFEFD;}
	.st1{fill:#A3C43A;}
	.st2{fill:#09552C;}
	.st3{fill:#FDEB0B;}
	.st4{fill:#12582D;}
	.st5{fill:#02572D;}
</style>
<g>
	<path class="st0" d="M1,313c0-0.3,0-0.7,0-1c2-2,4.2-3.8,6.1-5.9C19.2,293.6,34.8,286,49,276.4c24.7-16.6,49.7-32.8,77.1-45
		c22.5-10,45.5-15,69.8-8.2c3.6,1,5.3,0.3,7.1-2.8c9.9-16.4,21.7-31.6,34.7-45.6c12.8-13.8,27.3-25.8,41.3-38.4
		c37.6-34,79.1-61.9,124.9-83.5C462.5,25.3,523.9,8.6,588.3,2.8c5.9-0.5,11.9,0.1,17.7-1.8c18,0,36,0,54,0c0.6,0.3,1.1,0.7,1.7,0.8
		c15.9,0.8,31.6,2.6,47.3,5.2c16.3,2.6,32.5,5.7,47.7,12.5c2.1,1,5.4,2.1,4.9,4.7c-0.5,2.4-3.8,1.9-6.1,2
		c-19.3,0.6-38.3-2.9-57.5-3.8c-22.3-1-44.6-0.7-66.8,1c-19.4,1.5-38.6,4.2-57.7,7.8c-12.3,2.3-24.5,4.8-36.4,8.9
		c8.9-1.5,17.8-1.4,26.7-1.7c24.6-0.8,49.1-0.8,73.7,1.5c18.8,1.7,37.6,3.8,56.2,7.1c59.8,10.8,116.3,30.8,168.4,62.3
		c41.9,25.4,78.3,56.9,106.7,97.2c21.3,30.3,36.3,63.4,42.6,100.2c1.2,7.1,2.4,14.3,3.6,21.4c0,13,0,26,0,39
		c-1.1,7.2-2.1,14.4-3.4,21.5c-9.7,51.6-34.4,95.5-70.1,133.4c-45.9,48.8-102.2,81.6-164.8,104.1c-44.7,16-90.8,25.5-138.1,29.4
		c-4.8,0.4-9.9-0.4-14.6,1.7c-22.7,0-45.3,0-68,0c-0.5-0.9-1.3-0.9-2.1-1c-13.5-0.7-26.8-2.2-40.2-3.9c-34.1-4.4-67.4-12-99.9-22.9
		c-46.3-15.4-89.4-37.1-128.6-66.2c-2.5-7.8-6.5-14.8-10.5-21.9c-6.8-12.1-13.8-24.1-20.8-36.1c1.7-0.8,2.2,0.8,3,1.6
		c28.9,29.1,63,50.3,100.4,66.6c72.4,31.5,148.9,43.5,227,47.8c25.4,1.4,50.6-0.7,75.6-5.1c21.4-3.7,42.7-8.2,62.8-16.9
		c4.3-1.9,8.5-3.9,11.9-7.1c1.8-1.7,3.1-3.6,2.3-6.2c-0.8-2.5-3.1-2.9-5.2-3.4c-1.3-0.3-2.6-0.3-4-0.4c-15.3-0.9-30.6,0.8-45.9,1.5
		c-22.6,1-45.3,2.9-67.6-2.5c-25-6.1-45.7-19-59.2-41.6c-6.7-11.2-9.8-23.3-6.4-36.3c4.3-16.7,16.2-26.4,31.1-32.8
		c23.6-10.3,48.7-11.7,73.9-10.4c20.1,1,40.1,3.3,60.2,4.1c31.5,1.3,62.9,1.6,94.2-2.7c29.5-4.1,58.2-10.5,82.5-29.4
		c4.1,0.6,8.2,1.1,12.3,1.7c20.9,3.1,39.6-1.1,54.5-17.2c8.7-9.4,15.1-20.2,19.4-32.2c10.3-28.2,13.1-57.4,12.1-87.2
		c-0.9-25-11.9-44.5-32-59c-1.9-1.4-4-2.3-6.3-2.8c-11-2.7-21.9-5.1-33.3-5.5c-12.3-0.4-24.5-2-36.4,2.5c-0.6-1-1.2-2-1.9-3
		c-28-43.2-63.3-78-110.9-99.5c-61.9-27.9-127-38-194.4-35c-18.4,0.8-36.9,1.3-55.3,3.4c-8.2,0.9-16.3,2-24.5,3
		c7.9-3.2,15.9-5.7,24-8c35.7-10,72-16.2,108.9-18.6c25.1-1.6,50.2-1.3,75.3,1.3c10.8,1.1,21.5,2.3,32.4,1.4
		c1.4-0.1,3.4,0.2,3.8-1.6c0.3-1.7-1.6-2.4-2.9-3c-5.6-2.9-11.6-5-17.8-6.4C684.2,58,650,55.2,615.4,55.5
		c-38.4,0.4-76.3,5.2-113.5,14.5c-86,21.5-162.1,60.9-224.5,124.8c-16.1,16.5-30.7,34.2-42.8,53.8c-13.5-5.1-27.3-8.1-41.9-6.9
		c-12.8,1-24.5,5.5-36,10.7c-24.8,11.1-47.1,26.5-69.8,41.2c-12.2,8-25,15.1-35.1,26c-1.5,1.6-2,2.5-0.7,4.5
		c14.6,21,26.6,43.7,40.9,64.8c33.2,48.8,66.4,97.5,100.9,145.4c14.9,20.6,30,41.1,44.8,61.7c1.7,2.4,3,1.7,4.9,0.8
		c8.7-4.4,17.5-8.7,26.2-13.1c4.1,10.1,2.8,16.7-4.5,21c-14,8.3-28.3,16.2-43.2,23c-1.9,0.9-3.2,1.2-4.5-0.9
		c-6.6-11.1-15.2-20.6-22.7-31c-34.5-47.3-68.3-95.2-101.3-143.7c-18.8-27.6-38.8-54.5-56-83.3C25.3,350,14,331,1,313z"/>
	<path class="st1" d="M890.7,431.7c-24.3,18.8-53,25.3-82.5,29.4c-31.3,4.3-62.8,4-94.2,2.7c-20.1-0.8-40.1-3.1-60.2-4.1
		c-25.2-1.2-50.3,0.2-73.9,10.4c-14.9,6.5-26.8,16.2-31.1,32.8c-3.3,13-0.2,25.2,6.4,36.3c13.5,22.6,34.1,35.5,59.2,41.6
		c22.3,5.4,45,3.5,67.6,2.5c15.3-0.7,30.5-2.3,45.9-1.5c1.3,0.1,2.7,0.1,4,0.4c2.1,0.5,4.4,0.9,5.2,3.4c0.8,2.6-0.5,4.5-2.3,6.2
		c-3.5,3.2-7.7,5.3-11.9,7.1c-20.1,8.8-41.4,13.2-62.8,16.9c-25,4.3-50.2,6.5-75.6,5.1c-78.1-4.3-154.6-16.3-227-47.8
		c-37.4-16.3-71.5-37.5-100.4-66.6c-0.8-0.8-1.3-2.4-3-1.6c0,0,0.1,0.1,0.1,0.1c0.8-1.7-0.7-1.7-1.5-2.1c-6-8.8-11.9-17.6-18.1-26.3
		c-2.1-3-1.4-4.2,1.4-5.9c12-7.2,24-14.3,35.5-22.3c4.7-3.2,7-2.9,10.9,1c9.9,9.9,22.7,14.8,35.9,18.6c0.9,1.7,2.4,2.7,3.8,3.8
		c10.8,8.5,22.9,14.6,35.8,19.3c15.4,5.6,31,10.7,47.5,11.9c2.4,3.6,6.4,5.1,10,6.9c12,6.1,24.9,7.3,38,7.1
		c11.4,3.8,22.8,7.6,34.1,11.5c2.2,0.7,4.3,1.7,6.7,1.5c0.4,0.5,0.7,1.3,1.2,1.5c13.4,5.3,26.1,12.3,38.7,19.3
		c0.7,0.4,1.5,0.7,2.3,0.9c1.1,0.3,2.4,0.6,3.3-0.4c0.9-1.1,0.1-2.3-0.4-3.2c-5-8.3-10.6-16-19.1-21.2c-7-7.5-15.8-12.7-24-18.8
		c-3.2-8.2-10.6-9.9-18.1-11.3c-9.2-5.8-18.9-10.4-28.9-14.8c0.1-2.1-1.3-3.4-2.5-4.7c-4-4-9.2-6.4-14.3-8.6
		c-9.4-4-19.5-6.1-29.3-8.9c-3.6-4.5-8.1-8.3-11-13.4c-6.7-12.3-11.1-24.9-9.1-39.3c1.3-9.4,6-17.1,11.4-24.5
		c0.3-0.3,0.5-0.5,0.8-0.8l-0.1,0.1c1,0.2,1.8,0.1,2.1-1.1l-0.1,0.1c7.5-3.1,14.8-6.6,22.5-9.3c16.5-6,33.5-9.4,50.8-4.4
		c23.6,6.7,36.5,23.6,42.8,46.5c2.6,9.5,3.2,19.3,4.7,29c-0.1,0.5-0.2,1-0.3,1.5c-0.8,3.4-1.1,7,2.7,8.6c3.6,1.6,5.3-1.7,6.9-4.2
		c9.7-16,15.4-33.5,16.9-52.1c2.3-29.4-7.3-55.7-23.7-79.6c-18.1-26.3-41.5-47.4-67.2-65.9c-23.1-16.6-37.7-38.8-45-66.1
		c-2-7.5-2.8-15.3-5.6-22.6c-4.2-10.9-12.6-13.3-21.4-5.6c-3.8,3.3-6.8,7.5-11,10.4c-3.6,0.6-5.4,3.7-7.8,5.9
		c-32.5,29.6-61.2,62.4-83.3,100.6c-1,1.8-1.6,3.9-3.5,5.3c-11.5-13.1-25-23.2-40.7-30.2c12.1-19.6,26.7-37.4,42.8-53.8
		C339.8,131,415.9,91.6,501.9,70.1c37.2-9.3,75.1-14.2,113.5-14.5C650,55.2,684.2,58,717.9,66c6.1,1.5,12.1,3.5,17.8,6.4
		c1.3,0.7,3.2,1.3,2.9,3c-0.3,1.8-2.3,1.5-3.8,1.6c-10.9,0.9-21.6-0.3-32.4-1.4c-25.1-2.6-50.2-2.8-75.3-1.3
		c-37,2.3-73.3,8.6-108.9,18.6c-8.1,2.3-16.1,4.8-24,8c8.2-1,16.3-2,24.5-3c18.4-2.1,36.8-2.6,55.3-3.4c67.4-3,132.5,7.1,194.4,35
		c47.6,21.4,83,56.3,110.9,99.5c0.6,1,1.2,2,1.9,3c-22,9.7-35.6,26.5-42.4,49.3c-9.2,30.9-10.2,62.2-4.3,93.7
		c3,16,9.8,30.2,21.8,41.8C865.9,426.2,877.8,430,890.7,431.7z M713.9,333.7c0-9.1,0-15.3,0-21.4c0-1.8,0.1-3.3,2.6-3.2
		c7.2,0.1,14.3-0.3,21.4,0.6c2.9,0.4,3.7,1.6,4.3,4.3c3.5,15.9,6.9,31.8,11,47.6c3.1,12.2,7.2,24.2,10.5,36.4
		c2.1,7.8,2.3,16.1,5.3,23.8c1.4,3.6,3.5,6.5,7.5,7.3c13.4,2.9,26.6,2.8,39.7-1.9c6.3-2.3,7.8-5.4,4.1-11.4c-2.4-4-4.7-8-6.6-12.3
		c-5-11.2-7.4-23-9.3-35c-3.7-22.6-11.5-44-18.3-65.7c-1.1-3.4-0.7-5.4,2.2-7.5c4.3-3.1,8.3-6.6,12.6-9.9c7.8-6,12.4-13.9,13.8-23.5
		c2.5-17,1.2-33.9-3.7-50.3c-5.4-18.3-17.5-28.9-36.9-30.4c-4-0.3-7.9-1.2-11.9-1.5c-12.1-0.9-24.1-2.8-36.3-1.7
		c-16.4,1.5-32.4,5.9-48.7,7.6c-8.8,0.9-11.6,4.7-12.1,13.5c-0.1,1.7-0.2,3.3-0.1,5c0.7,20.3,1.3,40.6,2.2,60.8
		c0.5,12.1,1.2,24.3,2.1,36.4c1.4,19.6,3.4,39.1,4.6,58.7c1.2,20.4,1.6,40.9,2.3,61.3c0.2,5.9,2.2,8.5,7.9,9.8
		c9,2.1,18.2,1.6,27.4,1c5.1-0.3,7.7-4.2,8.4-9.2c0.4-3.1,0.1-6.3-0.3-9.4c-1.3-8.5-2.8-17.1-3.6-25.7
		C714.2,368.7,714.8,349.7,713.9,333.7z M594.3,452c9.6-1.1,18.7-3.1,27.8-5c7-1.4,10.1-5.6,9.8-12.7c-0.9-19.2-5-37.8-8.6-56.6
		c-1.8-9.4-7.2-17.7-9-26.9c-8.1-39.9-15.6-79.9-23.6-119.7c-0.7-3.6,0.6-4.2,3.2-4.9c13.8-3.7,27.9-6.1,41.8-9.2
		c3.6-0.8,7.2-1.2,10.4-3.2c2.6-1.6,4.2-3.7,3.5-7c-2.4-11.7-4.6-23.4-7.1-35.1c-1.4-6.7-3.2-7.9-10-7.7
		c-15.1,0.3-29.6,4.1-44.3,6.6c-36.4,6.1-72.8,11.4-109.2,17.8c-7,1.2-14.2,1.7-20.8,4.9c-7.2,3.5-8.7,6.9-6.5,14.4
		c3,10.2,6.1,20.4,9.2,30.5c1.8,5.9,5,8.4,11.2,8.9c2.5,0.2,5,0.3,7.5,0.1c17.7-1.7,34.9-6.5,52.4-9.5c6.5-1.1,6.8-1.2,7.8,5.1
		c5.7,36.9,13.6,73.5,20.5,110.2c4.4,23.3,11.5,46.1,15.2,69.5c0.9,5.5,1.1,11.3,5.1,15.9c2,2.3,3.6,4.7,4.7,7.6
		C587.2,449.8,590.6,451.4,594.3,452z"/>
	<path class="st2" d="M234.6,248.7c15.7,7,29.2,17.1,40.7,30.2c1.9-1.4,2.5-3.6,3.5-5.3c22.1-38.3,50.8-71,83.3-100.6
		c2.4-2.2,4.1-5.3,7.8-5.9c0.4,2.1-1.3,3.3-2.3,4.8c-5.8,8.5-11.8,16.9-17.4,25.6c-22.6,35.2-41.9,72.1-52.4,112.9
		c-0.5,2-0.9,3.7-0.1,5.8c6.4,16,10,32.7,12,49.7c1.8,15.5,0.8,30.6-6.9,44.5c-1.4,2.6-1,4.4,0.5,6.6c9.7,14.3,23.1,23.7,39,29.9
		c19.5,7.7,40.5,8.6,60.7,13c9.8,2.8,19.8,4.9,29.3,8.9c5.2,2.2,10.3,4.5,14.3,8.6c1.2,1.2,2.6,2.6,2.5,4.7
		c-28.2-9.2-57.2-10.4-86.5-9.9c-15,0.2-29.8-1.2-44.5-4.1c-13.2-3.8-26-8.7-35.9-18.6c-3.9-3.9-6.2-4.2-10.9-1
		c-11.5,7.9-23.6,15-35.5,22.3c-2.8,1.7-3.6,2.9-1.4,5.9c6.2,8.6,12.1,17.5,18.1,26.3c0.5,0.7,1,1.4,1.5,2.1c0,0-0.1-0.1-0.1-0.1
		c6.9,12,14,24,20.8,36.1c4,7.1,8,14.1,10.5,21.9c1,8.7-0.4,11.2-8,15.5c-2.8,1.6-6,2.8-8.3,5.3c-8.7,4.4-17.5,8.7-26.2,13.1
		c-1.9,0.9-3.2,1.6-4.9-0.8c-14.8-20.6-30-41.1-44.8-61.7C158.4,486.5,125.2,437.8,92,389c-14.4-21.1-26.3-43.8-40.9-64.8
		c-1.4-2-0.8-2.9,0.7-4.5c10.1-10.9,22.9-18,35.1-26c22.6-14.8,44.9-30.2,69.8-41.2c11.5-5.1,23.3-9.6,36-10.7
		C207.3,240.6,221.1,243.6,234.6,248.7z M202.5,425.1c9.6-7,19.5-13.7,28.8-21.2c5-4,10.8-7.7,13.1-14.1c7.1-19.2,6.2-37.9-6.1-54.9
		c-8.7-12-20.5-20.7-32.5-29.1c-7.4-6.9-16-8.4-25.4-5.4c-3.6,1.1-7.2,2.5-10.6,4.1c-11.9,5.9-22.7,13.7-34.1,20.5
		c-3,1.8-1.5,3.2-0.4,5.1c8.7,14.5,17.2,29.1,25.9,43.7c6.5,10.8,11.8,22.3,20.2,31.9c5.1,5.8,9.6,11.9,13.4,18.6
		C197.4,428.4,199.5,428.7,202.5,425.1z"/>
	<path class="st2" d="M890.7,431.7c-12.9-1.6-24.8-5.5-34.6-14.8c-12-11.6-18.9-25.8-21.8-41.8c-5.9-31.5-4.9-62.8,4.3-93.7
		c6.8-22.8,20.4-39.7,42.4-49.3c11.9-4.6,24.2-2.9,36.4-2.5c11.4,0.4,22.3,2.8,33.3,5.5c2.3,0.6,4.4,1.5,6.3,2.8
		c20.2,14.5,31.1,34,32,59c1,29.8-1.8,59-12.1,87.2c-4.4,11.9-10.8,22.8-19.4,32.2c-14.9,16.1-33.5,20.3-54.5,17.2
		C899,432.8,894.8,432.2,890.7,431.7z M898,266.7c-7,2.5-11.5,7.6-14.4,14.3c-7.7,18.2-14.6,36.5-15.2,56.8
		c-0.5,17.2,1.8,33.4,10.7,48.3c2.1,3.5,4.4,7.3,8.7,8.5c6.8,1.9,13.6,4.4,20.9,3.2c4.5,0.9,9.1,0.3,12.3-2.5
		c8.2-7.1,15.1-15.7,19.1-25.7c4.5-11.3,7.8-23.2,9.4-35.4c1.9-14.7,5.3-29.3,2.5-44.4c-1.7-9.3-4.5-17.2-13.4-21.8
		C925.3,261,911.8,260.9,898,266.7z"/>
	<path class="st3" d="M403,459.9c-20.2-4.4-41.2-5.4-60.7-13c-15.8-6.2-29.3-15.6-39-29.9c-1.6-2.3-2-4-0.5-6.6
		c7.7-14,8.7-29,6.9-44.5c-2-17.1-5.6-33.7-12-49.7c-0.8-2.1-0.4-3.8,0.1-5.8c10.6-40.8,29.8-77.7,52.4-112.9
		c5.6-8.7,11.6-17,17.4-25.6c1-1.5,2.7-2.6,2.3-4.8c4.2-2.9,7.2-7.1,11-10.4c8.8-7.7,17.2-5.3,21.4,5.6c2.8,7.3,3.6,15.1,5.6,22.6
		c7.3,27.3,21.9,49.5,45,66.1c25.8,18.5,49.1,39.6,67.2,65.9c16.4,23.9,26,50.1,23.7,79.6c-1.5,18.6-7.2,36-16.9,52.1
		c-1.6,2.6-3.2,5.8-6.9,4.2c-3.7-1.6-3.4-5.2-2.7-8.6c0.1-0.5,0.2-1,0.3-1.5c1.7-14.8,1.3-29.5,0.2-44.3
		c-1.6-21.9-14.1-36.9-35.4-41.9c-11.3-2.6-22.8-2-34.2-0.5c-17.8,2.3-34.1,8.5-47.8,20.3c-1.4,1.2-3.8,2-3.6,4.6
		c0,0,0.1-0.1,0.1-0.1c-1.3-0.9-1.5,0.4-2.1,1.1c0,0,0.1-0.1,0.1-0.1c-0.3,0.3-0.5,0.5-0.8,0.8c-5.4,7.4-10.1,15-11.4,24.5
		c-2,14.4,2.4,27,9.1,39.3C394.8,451.7,399.4,455.4,403,459.9z M373,258.9c-0.8-0.2-0.8,0.4-0.9,0.8c-8.3,13.9-11.8,29.3-12.9,45.1
		c-0.6,8.5-2.5,17.1-0.4,25.8c1.3,5.6,2.4,6.3,7.2,3.4c22.9-14.2,48.2-19.1,74.6-20c1.9-0.1,4.1,0.8,5.6-1.2
		c4.8,0.6,4.2-2.8,3.6-5.4c-0.8-3.4-3.2-6.1-5.5-8.7c-15-17.1-32.5-31.8-47.3-49.1c-2.9-3.4-7.2-6.2-11.9-3.7
		c-5.4,2.9-9.9,7.1-12,13.2L373,258.9z"/>
	<path class="st2" d="M713.9,333.7c0.9,16,0.3,35,2.1,53.9c0.8,8.6,2.3,17.1,3.6,25.7c0.5,3.2,0.8,6.3,0.3,9.4
		c-0.7,4.9-3.3,8.8-8.4,9.2c-9.1,0.6-18.3,1.2-27.4-1c-5.7-1.4-7.7-4-7.9-9.8c-0.8-20.4-1.2-40.9-2.3-61.3
		c-1.1-19.6-3.1-39.1-4.6-58.7c-0.9-12.1-1.6-24.2-2.1-36.4c-0.8-20.3-1.5-40.6-2.2-60.8c-0.1-1.7,0-3.3,0.1-5
		c0.5-8.8,3.3-12.6,12.1-13.5c16.4-1.7,32.3-6.1,48.7-7.6c12.2-1.1,24.2,0.8,36.3,1.7c4,0.3,7.9,1.2,11.9,1.5
		c19.4,1.6,31.5,12.1,36.9,30.4c4.9,16.5,6.2,33.3,3.7,50.3c-1.4,9.6-6,17.5-13.8,23.5c-4.2,3.3-8.2,6.8-12.6,9.9
		c-2.9,2.1-3.3,4.1-2.2,7.5c6.8,21.7,14.6,43.2,18.3,65.7c2,12,4.4,23.8,9.3,35c1.9,4.3,4.2,8.3,6.6,12.3c3.6,6,2.2,9.1-4.1,11.4
		c-13.1,4.7-26.3,4.8-39.7,1.9c-4-0.9-6.1-3.8-7.5-7.3c-3-7.7-3.2-15.9-5.3-23.8c-3.3-12.2-7.4-24.1-10.5-36.4
		c-4-15.8-7.5-31.7-11-47.6c-0.6-2.7-1.5-4-4.3-4.3c-7.1-0.9-14.3-0.5-21.4-0.6c-2.5,0-2.6,1.4-2.6,3.2
		C713.9,318.4,713.9,324.5,713.9,333.7z M729.3,214.8c-5.8-0.3-11.2,1.5-16.6,2.9c-2.4,0.6-2.7,1.7-2.6,3.8
		c0.4,6.8,0.7,13.6,0.9,20.4c0.2,10.8,0.3,21.6,2.7,32.2c0.8,3.7,2.1,5.4,6.3,5c9.7-1,19.5-1.5,29.3-2.4c8.8-0.8,14.3-5.8,16.7-14.2
		c1.6-5.7,2.7-11.6,4.1-17.4c1.5-6.1,0.4-11.9-2.1-17.4c-1.9-4.2-4.9-7.7-9.6-8.8C748.8,216.8,739,215.9,729.3,214.8z"/>
	<path class="st2" d="M594.3,452c-3.7-0.6-7.1-2.2-8.7-6.1c-1.2-2.8-2.8-5.3-4.7-7.6c-4-4.6-4.2-10.4-5.1-15.9
		c-3.8-23.5-10.8-46.2-15.2-69.5c-7-36.7-14.8-73.2-20.5-110.2c-1-6.3-1.2-6.3-7.8-5.1c-17.5,3-34.7,7.8-52.4,9.5
		c-2.5,0.2-5,0.1-7.5-0.1c-6.2-0.5-9.4-3-11.2-8.9c-3.1-10.2-6.2-20.3-9.2-30.5c-2.2-7.5-0.7-10.9,6.5-14.4
		c6.5-3.2,13.8-3.7,20.8-4.9c36.3-6.4,72.8-11.7,109.2-17.8c14.7-2.4,29.3-6.3,44.3-6.6c6.8-0.1,8.6,1,10,7.7
		c2.4,11.7,4.7,23.4,7.1,35.1c0.7,3.3-1,5.4-3.5,7c-3.2,2-6.8,2.4-10.4,3.2c-13.9,3.1-28,5.5-41.8,9.2c-2.7,0.7-4,1.4-3.2,4.9
		c8,39.9,15.5,79.9,23.6,119.7c1.9,9.2,7.2,17.5,9,26.9c3.6,18.7,7.6,37.4,8.6,56.6c0.3,7.1-2.8,11.3-9.8,12.7
		C613,448.9,603.9,450.9,594.3,452z"/>
	<path class="st3" d="M318.1,468.1c14.7,2.9,29.5,4.4,44.5,4.1c29.3-0.5,58.3,0.7,86.5,9.9c9.9,4.3,19.7,9,28.9,14.8
		c-9,0.1-17.9,1.2-26.5,3.7c-15.2,4.5-30.7,5-46.2,2.6c-16.5-1.2-32.1-6.4-47.5-11.9c-12.8-4.7-25-10.8-35.8-19.3
		C320.5,470.8,318.9,469.8,318.1,468.1z"/>
	<path class="st4" d="M396.9,381c-0.2-2.6,2.1-3.4,3.6-4.6c13.8-11.8,30-18,47.8-20.3c11.4-1.5,22.9-2.1,34.2,0.5
		c21.4,5,33.9,20,35.4,41.9c1.1,14.8,1.5,29.5-0.2,44.3c-1.5-9.7-2.1-19.5-4.7-29c-6.3-22.9-19.2-39.8-42.8-46.5
		c-17.4-4.9-34.3-1.5-50.8,4.4C411.8,374.4,404.4,377.8,396.9,381z"/>
	<path class="st4" d="M405.1,503.1c15.6,2.4,31,1.9,46.2-2.6c8.6-2.5,17.5-3.6,26.5-3.7c7.5,1.4,14.9,3,18.1,11.3
		c-2,0.2-3.9,0.3-5.9,0.5c-12.6,1.7-24.2,7.5-36.9,8.5c-13.2,0.2-26.1-0.9-38-7.1C411.5,508.2,407.6,506.8,405.1,503.1z"/>
	<path class="st3" d="M453.2,517.2c12.7-1,24.4-6.8,36.9-8.5c1.9-0.3,3.9-0.4,5.9-0.5c8.2,6,16.9,11.3,24,18.8
		c-8.9-0.7-17.4,0.9-25.9,3.2c-2.4,0.2-4.5-0.8-6.7-1.5C476,524.8,464.6,521,453.2,517.2z"/>
	<path class="st4" d="M494,530.1c8.5-2.3,17.1-3.9,25.9-3.2c8.5,5.2,14.1,13,19.1,21.2c0.6,0.9,1.3,2.1,0.4,3.2
		c-0.8,1-2.1,0.7-3.3,0.4c-0.8-0.2-1.6-0.5-2.3-0.9c-12.6-7-25.2-14-38.7-19.3C494.7,531.4,494.4,530.6,494,530.1z"/>
	<path class="st4" d="M394.9,382c0.5-0.7,0.7-1.9,2.1-1.1C396.7,382.1,395.9,382.2,394.9,382z"/>
	<path class="st0" d="M254,505.1c-0.5-0.7-1-1.4-1.5-2.1C253.3,503.4,254.8,503.4,254,505.1z"/>
	<path class="st4" d="M394.2,382.7c0.3-0.3,0.5-0.5,0.8-0.8C394.8,382.2,394.5,382.5,394.2,382.7z"/>
	<path class="st1" d="M205.9,305.8c12,8.4,23.8,17.2,32.5,29.1c12.3,17,13.2,35.6,6.1,54.9c-2.3,6.4-8.1,10.1-13.1,14.1
		c-9.3,7.4-19.2,14.1-28.8,21.2c-0.7-2-1.2-4.1-2-6.1c-4.7-13-9.4-26-9.5-40C190.7,353.5,196.7,329.3,205.9,305.8z"/>
	<path class="st0" d="M205.9,305.8c-9.2,23.5-15.2,47.7-14.9,73.1c0.2,14,4.8,27,9.5,40c0.7,2,1.3,4.1,2,6.1c-3,3.6-5.2,3.3-7.6-0.9
		c-3.8-6.6-8.4-12.8-13.4-18.6c-8.4-9.6-13.8-21.1-20.2-31.9c-8.7-14.5-17.3-29.1-25.9-43.7c-1.1-1.9-2.6-3.3,0.4-5.1
		c11.4-6.7,22.2-14.5,34.1-20.5c3.4-1.7,7-3,10.6-4.1C190,297.4,198.5,298.9,205.9,305.8z"/>
	<path class="st0" d="M898,266.7c13.7-5.7,27.3-5.7,40.7,1.2c8.9,4.6,11.7,12.5,13.4,21.8c2.8,15.1-0.6,29.7-2.5,44.4
		c-1.6,12.2-4.9,24.1-9.4,35.4c-3.9,10-10.9,18.6-19.1,25.7c-3.2,2.8-7.8,3.4-12.3,2.5c0.1-0.8,0-1.7,0.2-2.5
		c5.9-25.8,6.7-51.7,2.9-77.8C909.5,299.9,905.2,282.9,898,266.7z"/>
	<path class="st1" d="M898,266.7c7.2,16.2,11.5,33.2,14,50.7c3.7,26.1,2.9,52.1-2.9,77.8c-0.2,0.8-0.1,1.7-0.2,2.5
		c-7.3,1.2-14.1-1.3-20.9-3.2c-4.4-1.2-6.7-5-8.7-8.5c-8.9-14.8-11.2-31.1-10.7-48.3c0.5-20.3,7.5-38.6,15.2-56.8
		C886.5,274.2,891,269.2,898,266.7z"/>
	<path class="st1" d="M446.2,312.8c-1.5,1.9-3.7,1.1-5.6,1.2c-26.4,0.9-51.7,5.8-74.6,20c-4.8,3-5.8,2.2-7.2-3.4
		c-2.1-8.7-0.1-17.3,0.4-25.8c1-15.8,4.6-31.2,12.9-45.1c0.3-0.3,0.6-0.6,0.9-0.8c0,0-0.1,0.1-0.1,0.1c6.5-2.4,11.7,0.4,16.5,4.2
		c12.7,9.9,25.5,19.8,37.9,30.1C434.3,299,441.9,304.4,446.2,312.8z"/>
	<path class="st4" d="M446.2,312.8c-4.3-8.4-11.9-13.8-18.8-19.6c-12.4-10.3-25.1-20.2-37.9-30.1c-4.8-3.8-10.1-6.6-16.5-4.2
		c2.2-6.1,6.6-10.3,12-13.2c4.7-2.5,9,0.4,11.9,3.7c14.8,17.3,32.3,32,47.3,49.1c2.3,2.6,4.7,5.3,5.5,8.7
		C450.4,310,451,313.4,446.2,312.8z"/>
	<path class="st4" d="M373,258.9c-0.3,0.3-0.6,0.6-0.9,0.8C372.3,259.3,372.3,258.7,373,258.9z"/>
	<path class="st1" d="M729.3,214.8c9.7,1,19.5,1.9,29,4.1c4.7,1.1,7.7,4.6,9.6,8.8c2.5,5.5,3.6,11.3,2.1,17.4
		c-1.4,5.8-2.5,11.7-4.1,17.4c-2.3,8.4-7.9,13.4-16.7,14.2c-9.8,0.9-19.6,1.4-29.3,2.4c-4.1,0.4-5.4-1.3-6.3-5
		c-2.4-10.6-2.5-21.4-2.7-32.2c-0.1-6.8-0.5-13.6-0.9-20.4c-0.1-2.1,0.2-3.2,2.6-3.8C718.1,216.3,723.5,214.5,729.3,214.8z"/>
</g>
<g>
	<path class="st5" d="M602.3,525.9c0,0.1-0.1,1.6-0.2,4.4c-0.1,3.2-0.1,5.5-0.2,6.8c-0.6,0.3-0.9,0.4-0.8,0.4
		c-0.3,0-1.7,0.5-2.2,0.5c-0.2,0-1.6,0.1-4.3,0.2c-2.7,0.1-4.1,0.1-4.3,0.1c-6.4,0-10.8-0.8-13.1-2.3c-2.8-2-4.8-5-5.9-9.1
		c-0.3-1.3-0.5-3-0.4-5c0.1-2.8,0.8-5.8,2.1-9.1c0.4-1.1,1.2-2.7,2.4-4.8c1.2-1.5,3.1-2.8,5.3-3.7c1.8-0.9,3.5-1.2,4.8-1.2h9
		c0-5.1,0.5-7.6,1.3-7.6c1.6,0.1,3.6,0.3,5.8,0.7c0.2,1.4,0.3,4.3,0.3,8.5L602.3,525.9z M595.1,513.6c0,0,0-1.5,0-4.7
		c-1.2-0.2-3.4-0.1-6.6,0.3c-1.1,0-2.8,0.3-5,0.8c-2.8,1.4-6,5.9-6,10c0,1.1,0.2,2.3,0.6,3.7c0.9,3.6,1.6,5.7,2.2,6.4
		c1.3,1.8,3.8,2.7,7.4,2.7c5.3,0,7.6,0,7-0.1c0-2.4,0.1-5.5,0.3-9.4c0.3-3.9,0.4-5.8,0.4-5.6C595.3,516.9,595.2,515.6,595.1,513.6z"
		/>
	<path class="st5" d="M627.5,537.2c-1,0.3-3,0.5-6,0.8c-2.4,0.2-4.4,0-5.9-0.6c-4.7-1.8-7.9-5.4-9.4-10.8c-0.8-2.7-1.2-6.6-1.2-11.8
		c0-6.4,2.4-11.6,7.3-15.4c0.3-0.3,1.2-0.8,2.5-1.3c1.3-0.7,2.1-1,2.4-1s1.1,0.1,2.3,0.3c1.2,0.1,2,0.2,2.2,0.2c1.1,0,2.3,0.3,3.6,1
		c1.2,0.6,1.9,1.1,2.3,1.4c0.3,0.5,1.1,1.5,2.2,3c1.6,3,2.4,7.2,2.1,12.6c-0.8,0.4-1.4,0.6-1.9,0.6h-2c-1.2-0.1-2.2-0.1-2.9-0.1
		c-1.4,0.1-3.8,0.1-7.1,0.1c-1.2-0.1-3.9-0.2-4.3-0.2c-0.9,0-2.5,0.8-2.5,1.8c0,2.9,0.3,5.2,0.9,7c1.2,4.1,3.3,6.5,5.9,7.3
		c0.1,0.1,1.4,0.1,4,0.1c0.9,0,2.1-0.4,3.9-1.1l3.6-1.4c0.5,0.9,1.3,2.2,2.6,3.8C631,535.3,629.4,536.5,627.5,537.2z M627.2,509.9
		c-0.3-2.3-1.6-4.3-4-6c-0.9-0.6-1.6-0.9-2.1-0.9c-2.2,0-3.6,0.1-4.2,0.4c-0.6,0.2-1.4,0.9-2.6,1.9c-1.3,1.3-2,2.5-2,3.4v1.1
		c-0.1,0.4-0.1,0.6-0.1,0.7h12.7c1.8,0,2.7-0.1,2.7-0.2L627.2,509.9z"/>
	<path class="st5" d="M714.7,531.3c0,1.1,0,2.2,0.1,3.4c-0.1,1.3-0.5,2.2-1.2,2.7c-1.2,0.7-2.1,1.1-2.4,1.1c-1.2,0-2-0.2-2.6-0.5
		c-1.2-0.7-1.8-1.5-1.8-2.6c-0.1-6.4-0.1-14.2,0-23.3c0.1-0.7,0.1-1.2,0.1-1.8c0-4.3-1.9-7.9-4.3-7.9c-1.2,0-2.6,1.1-2.9,1.9
		c-0.5,1.5-0.9,2.7-1.2,3.4c-0.3,0.7-0.5,2-0.6,4c-1.2,1-1.9,1.4-2.4,1.4c-0.3,0-0.9,0-1.9-0.1h-1.8c-0.3,0-0.7-0.3-1.2-0.9
		c-0.2-1.3-0.5-3.3-0.8-5.9c-0.1-1.4-1.3-3.5-2.8-3.5c-1.5,0-2.9,0.5-4.1,1.4c-1.4,1.2-2.2,2.9-2.3,4.9c-0.1,16.7,0,26.3,0.2,28.8
		c-0.3,0.1-0.5,0.4-0.5,0.9c-1,0-2.1-0.1-3.6-0.2c-1.3-0.1-2-0.2-2.1-0.2c-1.2,0-1.8-6.8-1.6-20.4c0-0.2,0-0.6-0.1-1.1v-1.2
		c0-0.5-0.1-1.3-0.2-2.5c-0.1-1.2-0.2-1.9-0.2-2c0-1.6,0.3-3.4,1-5.1c1.1-2.4,1.6-5,4.8-7.6c1.1-0.9,3-1.6,6-2.4
		c1.2-0.3,3.4-0.5,6.1-0.5c0.2,0,0.8,0.5,1.7,1.4c0.8,0.7,1.3,1.5,1.7,2.4c2.3-2,3.7-3.3,4.3-3.6c0.6-0.3,1.9-0.5,4-0.5
		c3.9,0,5.2,0.4,8.3,2.7c2.6,2,4,3.9,4.1,5.6c0.3,5.1,0.5,8,0.5,8.6C715.1,523,715,529.3,714.7,531.3z"/>
	<path class="st5" d="M741.7,537.2c-1,0.3-3,0.5-6,0.8c-2.4,0.2-4.4,0-5.9-0.6c-4.7-1.8-7.9-5.4-9.4-10.8c-0.8-2.7-1.2-6.6-1.2-11.8
		c0-6.4,2.4-11.6,7.3-15.4c0.3-0.3,1.2-0.8,2.5-1.3c1.3-0.7,2.1-1,2.4-1s1.1,0.1,2.3,0.3c1.2,0.1,2,0.2,2.2,0.2c1.1,0,2.3,0.3,3.6,1
		c1.2,0.6,1.9,1.1,2.3,1.4c0.3,0.5,1.1,1.5,2.2,3c1.6,3,2.4,7.2,2.1,12.6c-0.8,0.4-1.4,0.6-1.9,0.6h-2c-1.2-0.1-2.2-0.1-2.9-0.1
		c-1.4,0.1-3.8,0.1-7.1,0.1c-1.2-0.1-3.9-0.2-4.3-0.2c-0.9,0-2.5,0.8-2.5,1.8c0,2.9,0.3,5.2,0.9,7c1.2,4.1,3.3,6.5,5.9,7.3
		c0.1,0.1,1.4,0.1,4,0.1c0.9,0,2.1-0.4,3.9-1.1l3.6-1.4c0.5,0.9,1.3,2.2,2.6,3.8C745.2,535.3,743.7,536.5,741.7,537.2z M741.4,509.9
		c-0.3-2.3-1.6-4.3-4-6c-0.9-0.6-1.6-0.9-2.1-0.9c-2.2,0-3.6,0.1-4.2,0.4c-0.6,0.2-1.4,0.9-2.6,1.9c-1.3,1.3-2,2.5-2,3.4v1.1
		c-0.1,0.4-0.1,0.6-0.1,0.7H739c1.8,0,2.7-0.1,2.7-0.2L741.4,509.9z"/>
	<path class="st5" d="M774.4,536.7c-0.5,1-1.5,1.4-3.3,1.4c-2.1,0-3.3-1.3-3.4-3.9c-0.1-0.5-0.4-2.1-0.4-2.8c0-5.5-0.1-8.9-0.4-10.5
		c-0.4-2.8-1.4-4.1-3.3-4c-0.3-0.2-1.5-0.3-3.7-0.3c-0.3,0.6-0.4,5.7-0.1,15.4c0,0,0.3,1.5,0.8,4.6c-1.1,1.1-2.4,1.5-4.2,1.5
		c-0.8-0.1-1.6-0.6-2.5-1.4c-0.1-0.7-0.4-5.3-0.7-13.8c-0.1-2.1-0.3-5.4-0.7-9.7c-0.3-4.1-0.5-6.2-0.5-6.2v-8.4
		c0-0.4,0.6-2.6,0.6-3.5c1.2-0.6,2.5-0.9,3.9-0.9c2.1,0,3.2,1.4,3.2,4.2v10.4c0.3,0.3,1.2,0.5,2.9,0.5h1.6c1.4,0,3.1,0.6,4.9,1.8
		c3.6,2.3,5.5,9.4,5.5,21.3C774.7,534.8,774.6,536.2,774.4,536.7z"/>
	<path class="st5" d="M809.2,526.6c0,0.1,0,1.5-0.1,4.1c-0.1,3-0.2,5.1-0.2,6.3c-0.6,0.3-0.9,0.4-0.8,0.4c-0.4,0-1.6,0.5-2,0.5
		c-0.2,0-1.5,0.1-4.1,0.2s-3.9,0.1-4,0.1c-6.1,0-10.3-0.8-12.4-2.2c-2.4-1.7-4.1-5.4-5.2-10.8c-0.4-2.2-0.4-5.2,0-8.7
		c0.3-3.4,1-6.1,2-8.5c0.4-1,1.2-2.4,2.3-4.4c1.7-2.2,4.9-3.7,9.4-4.7c1.1-0.3,2.1-0.4,3.3-0.4c0.9,0,2.1,0.1,3.7,0.3
		c1.6,0.2,2.9,0.3,3.6,0.3c1.8,0.3,3,0.6,3.6,0.9c0.4,2.4,0.6,4.6,0.6,6.7L809.2,526.6z M802.6,509.2c-0.1-1.6-0.2-2.9-0.2-3.9
		c-2.9-0.5-4.7-0.7-5.5-0.7c-1.1,0-2.7,0.3-4.7,0.8c-1.3,0.7-2.6,1.9-3.8,3.7c-1.2,1.8-1.6,4.9-1.2,9.2c0.5,5,1,8.3,1.5,9.8
		c1.2,3.4,3.5,5,6.8,5c4.9,0,7.1,0,6.6-0.1c0-2.2,0.1-5.5,0.4-10s0.5-6.6,0.5-6.4C803,514.5,802.9,512,802.6,509.2z"/>
	<path class="st5" d="M839.1,533.5c-0.6,1.6-2.3,2.9-5.1,3.9c-2.3,0.9-4.4,1.3-6.3,1.3c-0.5,0-0.7,0.3-1.1,0.3s-0.7-0.6-1.2-0.6
		c-0.4,0-2.6-0.3-3-0.3h-5.4c-0.4-0.1-0.8-0.3-1.2-0.6c-0.6-2.4-0.9-3.8-0.9-4.2c0-0.5,0.8-1.5,1.2-1.5c6.6,0.1,11.2,0,13.9-0.3
		c1.8-0.3,3.2-1.2,3.6-2.3c0.3-0.9,0.4-1.7,0.4-2.8c0-1.2-0.1-1.8-0.2-1.9c-3.1,1.2-5.1,1.9-6.1,1.9c-0.4,0-1.6,0.5-2.1,0.5h-2.9
		c-0.5,0-0.4-0.5-0.8-0.5c-0.9,0-2.1-0.6-3.9-1.7c-1.7-1.2-2.7-2.1-2.9-2.8c-0.3-0.5-0.6-1.2-1-2.2c-0.8-2.2-1.2-4.1-1.2-6
		c0-6.7,2.6-11.9,7.7-15.5c0.6-0.5,2-0.9,4.4-1.2c2-0.3,3.3-0.5,3.9-0.5c-0.1,0,3.6,0.2,6.6,0.3c1.9,0,3.3,0.2,4,0.7
		c0.6,3.5,0.9,10.3,0.9,20.5C840.5,525.7,840,530.8,839.1,533.5z M832.6,503.8c-0.7-0.6-1.4-0.9-2.3-1c-0.4-0.1-1.2,0-2.2,0.3
		c-6.9,1.2-9.1,5-8.6,9.7c0.4,3.9,2.1,6.3,5.2,7.2c0.6,0.1,1.4,0.2,2.6,0.2c1.6-0.1,3-0.3,3.9-0.8c0.9-0.1,1.9-0.1,2-1.5
		C834,509.4,833.8,504.7,832.6,503.8z"/>
	<path class="st5" d="M874.9,523.4c0,0.3-0.1,1.1-0.3,2.5c-0.1,1.4-0.2,2.2-0.2,2.4v7.1c0,1.6,0,2.5-0.1,2.6c-0.5,0-3-0.3-3.3-0.3
		c-0.5,0-1.3-0.2-2.7-0.5c-0.5-3-0.7-6.6-0.6-10.9c0-1.1,0.1-2.5,0.3-4.3c0.2-1.8,0.3-2.9,0.3-3v-7.6c0-0.4-0.6-2.2-0.6-2.9
		c-0.5-4.3-2.5-6.4-6.2-6.4c-1.2,0-2.8,0.6-4.5,1.6c-0.7,0.3-1.5,0.9-2.6,1.8c-1.4,2-2.2,4.4-2.2,7.2v9.6c0,0-0.1,1.2-0.2,3.4
		c-0.1,2.2-0.2,3.8-0.2,5c0-0.3,0.1,0.9,0.3,3.6c0.2,1.6,0.1,2.9-0.3,3.6c-2.2,0.4-4.2,0.6-5.9,0.6c-0.5,0-1.1-0.3-1.1-0.3
		c0-2-0.1-5.3-0.3-9.6c-0.2-4.4-0.3-6.5-0.3-6.3c0-3,0.2-5.6,0.6-7.9c0.1-1.2,0.5-2.9,1-4.9l2-5.5c1-2.1,2.3-3.7,3.9-4.8
		c1.4-0.9,3.2-1.5,5.2-2c2.4-0.6,3.6-0.9,3.7-0.9c0.2,0,0.9,0,2,0.1c1.2,0.1,1.9,0.1,2.1,0.1c0.5,0,0.4,0.6,0.8,0.6
		c1.2,0,2.6,0.7,4,1.9c1.2,1.2,2.1,2.2,2.4,3.2c0.4,0.5,0.8,1.3,1.2,2.4c0.5,2.2,0.9,5.7,1.3,10.3L874.9,523.4z"/>
	<path class="st5" d="M903.4,537.2c-1,0.3-3,0.5-6,0.8c-2.4,0.2-4.4,0-5.9-0.6c-4.7-1.8-7.9-5.4-9.4-10.8c-0.8-2.7-1.2-6.6-1.2-11.8
		c0-6.4,2.4-11.6,7.3-15.4c0.3-0.3,1.2-0.8,2.5-1.3c1.3-0.7,2.1-1,2.4-1s1.1,0.1,2.3,0.3c1.2,0.1,2,0.2,2.2,0.2c1.1,0,2.3,0.3,3.6,1
		c1.2,0.6,1.9,1.1,2.3,1.4c0.3,0.5,1.1,1.5,2.2,3c1.6,3,2.4,7.2,2.1,12.6c-0.8,0.4-1.4,0.6-1.9,0.6h-2c-1.2-0.1-2.2-0.1-2.9-0.1
		c-1.4,0.1-3.8,0.1-7.1,0.1c-1.2-0.1-3.9-0.2-4.3-0.2c-0.9,0-2.5,0.8-2.5,1.8c0,2.9,0.3,5.2,0.9,7c1.2,4.1,3.3,6.5,5.9,7.3
		c0.1,0.1,1.4,0.1,4,0.1c0.9,0,2.1-0.4,3.9-1.1l3.6-1.4c0.5,0.9,1.3,2.2,2.6,3.8C906.9,535.3,905.3,536.5,903.4,537.2z M903.1,509.9
		c-0.3-2.3-1.6-4.3-4-6c-0.9-0.6-1.6-0.9-2.1-0.9c-2.2,0-3.6,0.1-4.2,0.4c-0.6,0.2-1.4,0.9-2.6,1.9c-1.3,1.3-2,2.5-2,3.4v1.1
		c-0.1,0.4-0.1,0.6-0.1,0.7h12.7c1.8,0,2.7-0.1,2.7-0.2L903.1,509.9z"/>
</g>
</svg>
